<svg width="116" height="116" viewBox="0 0 116 116" fill="none" xmlns="http://www.w3.org/2000/svg">
<g clip-path="url(#clip0_410_6202)">
<path d="M0 38.4C0 24.9587 0 18.2381 2.61584 13.1042C4.9168 8.58834 8.58834 4.9168 13.1042 2.61584C18.2381 0 24.9587 0 38.4 0H77.6C91.0413 0 97.7619 0 102.896 2.61584C107.412 4.9168 111.083 8.58834 113.384 13.1042C116 18.2381 116 24.9587 116 38.4V77.6C116 91.0413 116 97.7619 113.384 102.896C111.083 107.412 107.412 111.083 102.896 113.384C97.7619 116 91.0413 116 77.6 116H38.4C24.9587 116 18.2381 116 13.1042 113.384C8.58834 111.083 4.9168 107.412 2.61584 102.896C0 97.7619 0 91.0413 0 77.6V38.4Z" fill="#FEFEFE"></path>
<path d="M77.0212 55.0992C77.6376 56.6501 78.0243 58.277 78.1698 59.9319V59.9694C78.1892 60.1878 78.2087 60.4124 78.2216 60.6371C78.254 61.0863 78.2734 61.5356 78.2734 61.9942C78.2734 73.1043 68.9357 81.7995 57.4141 81.7995C45.8925 81.7995 36.5516 73.1043 36.5516 61.9942C36.5487 59.3712 37.0797 56.7731 38.1143 54.3473L25.0559 50.1853C23.6604 54.0748 22.9655 58.1659 23.0013 62.2814L23.0013 62.3499C23.0013 71.2916 26.4471 79.5251 32.6625 85.5341C38.9944 91.6522 47.8111 95.0155 57.4885 94.9999C67.1659 94.9843 76.0085 91.593 82.3469 85.4436C88.572 79.4065 91.9984 71.145 91.9984 62.1783V62.119C92.038 58.0414 91.3541 53.9875 89.9762 50.1323L76.7106 54.3566C76.8239 54.6031 76.9242 54.8496 77.0212 55.0992Z" fill="url(#paint0_linear_410_6202)"></path>
<path d="M40.0496 21.0573C39.9601 21.0673 39.8776 21.1087 39.8179 21.1738C39.7582 21.2389 39.7255 21.3229 39.7261 21.4098V27.8151L35.0249 23.2849C34.9611 23.2232 34.8758 23.1866 34.7856 23.182C34.6954 23.1774 34.6066 23.2052 34.5363 23.26C34.2355 23.492 33.9482 23.7398 33.6757 24.0024C33.4044 24.2649 33.1473 24.5409 32.9057 24.8292C32.849 24.8978 32.8207 24.9842 32.8261 25.0717C32.8314 25.1593 32.8702 25.2418 32.9348 25.3035L37.6327 29.8337L30.987 29.8337C30.8965 29.833 30.809 29.8645 30.741 29.922C30.673 29.9795 30.6293 30.0591 30.6182 30.1457C30.5373 30.8831 30.5373 31.6266 30.6182 32.364C30.6293 32.4505 30.673 32.5302 30.741 32.5877C30.809 32.6453 30.8965 32.6766 30.987 32.676L37.6295 32.676L32.9315 37.2061C32.8669 37.2678 32.8282 37.3504 32.8228 37.438C32.8175 37.5255 32.8458 37.6118 32.9024 37.6804C33.1441 37.9687 33.4011 38.2447 33.6725 38.5072C33.945 38.7698 34.2323 39.0177 34.5331 39.2497C34.6034 39.3045 34.6921 39.3324 34.7824 39.3278C34.8726 39.3232 34.9578 39.2864 35.0217 39.2248L39.7229 34.6946V41.0999C39.7223 41.1868 39.755 41.2708 39.8147 41.3358C39.8744 41.4009 39.9569 41.4425 40.0464 41.4525C40.812 41.5336 41.5845 41.5336 42.3501 41.4525C42.4396 41.4425 42.5221 41.4009 42.5818 41.3358C42.6415 41.2708 42.6742 41.1868 42.6736 41.0999V34.6946L47.3716 39.2248C47.4363 39.286 47.522 39.3224 47.6126 39.3269C47.7031 39.3315 47.7923 39.3041 47.8634 39.2497C48.1642 39.0177 48.4515 38.7698 48.724 38.5072C48.9962 38.2443 49.2532 37.9672 49.4941 37.6773C49.5504 37.6092 49.5787 37.5233 49.5733 37.4363C49.5679 37.3493 49.5293 37.2673 49.4649 37.2061L44.767 32.676H51.4095C51.4994 32.6758 51.5861 32.6441 51.6535 32.5867C51.7208 32.5292 51.764 32.45 51.7751 32.364C51.8165 31.9961 51.837 31.6264 51.8366 31.2564C51.8371 30.8843 51.8165 30.5125 51.7751 30.1426C51.764 30.0566 51.7208 29.9773 51.6535 29.9198C51.5861 29.8624 51.4994 29.8307 51.4095 29.8306H44.7735L49.4714 25.3004C49.5362 25.2387 49.5748 25.1558 49.5796 25.0681C49.5844 24.9804 49.555 24.894 49.4973 24.8261C49.0195 24.2501 48.4769 23.727 47.8795 23.2662C47.8085 23.2118 47.7193 23.1843 47.6288 23.1889C47.5382 23.1935 47.4525 23.2299 47.3877 23.2911L42.6898 27.8213L42.6898 21.416C42.6904 21.3291 42.6577 21.2451 42.598 21.18C42.5383 21.115 42.4558 21.0735 42.3663 21.0635C41.5965 20.981 40.8198 20.9789 40.0496 21.0573Z" fill="url(#paint1_linear_410_6202)"></path>
<path d="M84.0143 30.9586C84.0143 25.6015 79.5107 21.2587 73.9552 21.2587C68.3996 21.2587 63.896 25.6015 63.896 30.9586C63.896 36.3157 68.3996 40.6586 73.9552 40.6586C79.5107 40.6586 84.0143 36.3157 84.0143 30.9586Z" fill="url(#paint2_linear_410_6202)"></path>
</g>
<defs>
<linearGradient id="paint0_linear_410_6202" x1="23" y1="3.85977" x2="91.9808" y2="119.614" gradientUnits="userSpaceOnUse">
<stop offset="0.271146" stop-color="#615B69" stop-opacity="0.7"></stop>
<stop offset="1" stop-color="#0F0E11"></stop>
</linearGradient>
<linearGradient id="paint1_linear_410_6202" x1="23" y1="3.85977" x2="91.9808" y2="119.614" gradientUnits="userSpaceOnUse">
<stop offset="0.271146" stop-color="#615B69" stop-opacity="0.7"></stop>
<stop offset="1" stop-color="#0F0E11"></stop>
</linearGradient>
<linearGradient id="paint2_linear_410_6202" x1="23" y1="3.85977" x2="91.9808" y2="119.614" gradientUnits="userSpaceOnUse">
<stop offset="0.271146" stop-color="#615B69" stop-opacity="0.7"></stop>
<stop offset="1" stop-color="#0F0E11"></stop>
</linearGradient>
<clipPath id="clip0_410_6202">
<rect width="116" height="116" fill="white"></rect>
</clipPath>
</defs>
</svg>