<svg width="440" height="916" viewBox="0 0 440 916" fill="none" xmlns="http://www.w3.org/2000/svg">
<g filter="url(#filter0_ii_469_393)">
<rect x="1" y="349" width="5" height="67.5" rx="1" fill="url(#paint0_linear_469_393)"></rect>
</g>
<g filter="url(#filter1_ii_469_393)">
<rect x="1" y="264" width="5" height="67.5" rx="1" fill="url(#paint1_linear_469_393)"></rect>
</g>
<g filter="url(#filter2_ii_469_393)">
<rect x="1" y="191" width="5" height="42" rx="1" fill="url(#paint2_linear_469_393)"></rect>
</g>
<g filter="url(#filter3_ii_469_393)">
<path d="M434.5 288.6C434.5 288.04 434.5 287.76 434.609 287.546C434.705 287.358 434.858 287.205 435.046 287.109C435.26 287 435.54 287 436.1 287H437.9C438.46 287 438.74 287 438.954 287.109C439.142 287.205 439.295 287.358 439.391 287.546C439.5 287.76 439.5 288.04 439.5 288.6V392.4C439.5 392.96 439.5 393.24 439.391 393.454C439.295 393.642 439.142 393.795 438.954 393.891C438.74 394 438.46 394 437.9 394H436.1C435.54 394 435.26 394 435.046 393.891C434.858 393.795 434.705 393.642 434.609 393.454C434.5 393.24 434.5 392.96 434.5 392.4V288.6Z" fill="url(#paint3_linear_469_393)"></path>
</g>
<path d="M125.6 9H314.4C335.732 9 351.55 9.00226 364.072 10.0254C376.56 11.0457 385.506 13.0657 393.142 16.9561C406.877 23.9548 418.045 35.1226 425.044 48.8584C428.934 56.4936 430.954 65.4401 431.975 77.9277C432.998 90.4503 433 106.268 433 127.6V788.4C433 809.732 432.998 825.55 431.975 838.072C430.954 850.56 428.934 859.506 425.044 867.142C418.045 880.877 406.877 892.045 393.142 899.044C385.506 902.934 376.56 904.954 364.072 905.975C351.55 906.998 335.732 907 314.4 907H125.6C104.268 907 88.4503 906.998 75.9277 905.975C63.4401 904.954 54.4936 902.934 46.8584 899.044C33.1226 892.045 21.9548 880.877 14.9561 867.142C11.0657 859.506 9.04567 850.56 8.02539 838.072C7.00226 825.55 7 809.732 7 788.4V127.6C7 106.268 7.00226 90.4503 8.02539 77.9277C9.04567 65.4401 11.0657 56.4936 14.9561 48.8584C21.9548 35.1226 33.1226 23.9548 46.8584 16.9561C54.4936 13.0657 63.4401 11.0457 75.9277 10.0254C88.4503 9.00226 104.268 9 125.6 9Z" stroke="#191C26" stroke-width="6"></path>
<g mask="url(#scrHole)"><g filter="url(#filter4_dddddd_469_393)">
<path d="M10 124C10 84.7963 10 65.1945 17.6295 50.2207C24.3407 37.0493 35.0493 26.3407 48.2207 19.6295C63.1945 12 82.7963 12 122 12H318C357.204 12 376.806 12 391.779 19.6295C404.951 26.3407 415.659 37.0493 422.37 50.2207C430 65.1945 430 84.7963 430 124V792C430 831.204 430 850.806 422.37 865.779C415.659 878.951 404.951 889.659 391.779 896.37C376.806 904 357.204 904 318 904H122C82.7963 904 63.1945 904 48.2207 896.37C35.0493 889.659 24.3407 878.951 17.6295 865.779C10 850.806 10 831.204 10 792V124Z" fill="#373737"></path>
</g>
<path d="M12 122.8C12 84.7164 12 65.6746 19.4116 51.1286C25.9309 38.3336 36.3336 27.9309 49.1286 21.4116C63.6746 14 82.7164 14 120.8 14H319.2C357.284 14 376.325 14 390.871 21.4116C403.666 27.9309 414.069 38.3336 420.588 51.1286C428 65.6746 428 84.7164 428 122.8V793.2C428 831.284 428 850.325 420.588 864.871C414.069 877.666 403.666 888.069 390.871 894.588C376.325 902 357.284 902 319.2 902H120.8C82.7164 902 63.6746 902 49.1286 894.588C36.3336 888.069 25.9309 877.666 19.4116 864.871C12 850.325 12 831.284 12 793.2V122.8Z" fill="black"></path>
<rect x="4" y="98" width="6" height="9" fill="black" fill-opacity="0.1" style="mix-blend-mode:plus-darker"></rect>
<rect x="430" y="98" width="6" height="9" fill="black" fill-opacity="0.1" style="mix-blend-mode:plus-darker"></rect>
<rect x="4" y="808" width="6" height="9" fill="black" fill-opacity="0.1" style="mix-blend-mode:plus-darker"></rect>
<rect x="430" y="808" width="6" height="9" fill="black" fill-opacity="0.1" style="mix-blend-mode:plus-darker"></rect></g>
<g filter="url(#filter5_di_469_393)">
<path d="M308.925 12C305.678 12 302.468 12.6815 299.501 14C296.534 15.3187 293.323 16 290.076 16H148.925C145.678 16 142.468 15.3185 139.501 14C136.534 12.6813 133.323 12 130.076 12H308.925Z" fill="#1F1F1F"></path>
</g>
<mask id="mask0_469_393" style="mask-type:alpha" maskUnits="userSpaceOnUse" x="4" y="6" width="432" height="904">
<path d="M125.6 9H314.4C335.732 9 351.55 9.00226 364.072 10.0254C376.56 11.0457 385.506 13.0657 393.142 16.9561C406.877 23.9548 418.045 35.1226 425.044 48.8584C428.934 56.4936 430.954 65.4401 431.975 77.9277C432.998 90.4503 433 106.268 433 127.6V788.4C433 809.732 432.998 825.55 431.975 838.072C430.954 850.56 428.934 859.506 425.044 867.142C418.045 880.877 406.877 892.045 393.142 899.044C385.506 902.934 376.56 904.954 364.072 905.975C351.55 906.998 335.732 907 314.4 907H125.6C104.268 907 88.4503 906.998 75.9277 905.975C63.4401 904.954 54.4936 902.934 46.8584 899.044C33.1226 892.045 21.9548 880.877 14.9561 867.142C11.0657 859.506 9.04567 850.56 8.02539 838.072C7.00226 825.55 7 809.732 7 788.4V127.6C7 106.268 7.00226 90.4503 8.02539 77.9277C9.04567 65.4401 11.0657 56.4936 14.9561 48.8584C21.9548 35.1226 33.1226 23.9548 46.8584 16.9561C54.4936 13.0657 63.4401 11.0457 75.9277 10.0254C88.4503 9.00226 104.268 9 125.6 9Z" stroke="#8C8B87" stroke-width="6"></path>
</mask>
<g mask="url(#mask0_469_393)">
<g opacity="0.7" filter="url(#filter6_if_469_393)">
<rect x="1" y="349" width="5" height="67.5" rx="1" fill="url(#paint4_linear_469_393)"></rect>
</g>
<g opacity="0.7" filter="url(#filter7_if_469_393)">
<rect x="1" y="264" width="5" height="67.5" rx="1" fill="url(#paint5_linear_469_393)"></rect>
</g>
<g opacity="0.7" filter="url(#filter8_if_469_393)">
<rect x="1" y="191" width="5" height="42" rx="1" fill="url(#paint6_linear_469_393)"></rect>
</g>
<g opacity="0.7" filter="url(#filter9_if_469_393)">
<path d="M433.5 288.6C433.5 288.04 433.5 287.76 433.609 287.546C433.705 287.358 433.858 287.205 434.046 287.109C434.26 287 434.54 287 435.1 287H436.9C437.46 287 437.74 287 437.954 287.109C438.142 287.205 438.295 287.358 438.391 287.546C438.5 287.76 438.5 288.04 438.5 288.6V392.4C438.5 392.96 438.5 393.24 438.391 393.454C438.295 393.642 438.142 393.795 437.954 393.891C437.74 394 437.46 394 436.9 394H435.1C434.54 394 434.26 394 434.046 393.891C433.858 393.795 433.705 393.642 433.609 393.454C433.5 393.24 433.5 392.96 433.5 392.4V288.6Z" fill="url(#paint7_linear_469_393)"></path>
</g>
</g>
<path d="M264 35C273.941 35 282 43.0589 282 53C282 62.9411 273.941 71 264 71H176C166.059 71 158 62.9411 158 53C158 43.0589 166.059 35 176 35H264Z" fill="black"></path>
<g opacity="0.64" style="mix-blend-mode:screen">
<path d="M269.999 52.5787C269.956 55.0636 267.907 57.0428 265.422 56.9995C262.937 56.9561 260.957 54.9065 261.001 52.4216C261.044 49.9367 263.094 47.9575 265.579 48.0008C268.064 48.0442 270.043 50.0938 269.999 52.5787Z" fill="url(#paint8_linear_469_393)"></path>
<path d="M269.999 52.5787C269.956 55.0636 267.907 57.0428 265.422 56.9995C262.937 56.9561 260.957 54.9065 261.001 52.4216C261.044 49.9367 263.094 47.9575 265.579 48.0008C268.064 48.0442 270.043 50.0938 269.999 52.5787Z" fill="url(#paint9_linear_469_393)"></path>
<path d="M268.332 55.9973C266.401 57.5613 263.567 57.2635 262.003 55.3321C260.439 53.4007 260.737 50.567 262.668 49.003C264.6 47.439 267.433 47.7368 268.997 49.6682C270.561 51.5996 270.264 54.4333 268.332 55.9973Z" fill="black" fill-opacity="0.01"></path>
<path d="M265.936 51.7647C265.507 52.1123 264.877 52.0461 264.53 51.6169C264.182 51.1877 264.248 50.558 264.677 50.2104C265.107 49.8629 265.736 49.929 266.084 50.3582C266.431 50.7874 266.365 51.4171 265.936 51.7647Z" fill="#4C4C4D"></path>
<path d="M266.078 55.4542C265.648 55.8018 265.019 55.7356 264.671 55.3064C264.324 54.8772 264.39 54.2475 264.819 53.8999C265.248 53.5523 265.878 53.6185 266.225 54.0477C266.573 54.4769 266.507 55.1066 266.078 55.4542Z" fill="#4C4C4D"></path>
</g>
<defs>
<mask id="scrHole" maskUnits="userSpaceOnUse" x="0" y="0" width="440" height="916">
<rect width="440" height="916" fill="white"></rect>
<path d="M119.8 21C84.5167 21 66.8748 20.9996 53.3984 27.8662C41.5442 33.9062 31.9062 43.5442 25.8662 55.3984C18.9996 68.8749 19 86.5167 19 121.8V794.2C19 829.483 18.9996 847.125 25.8662 860.602C31.9062 872.456 41.5442 882.094 53.3984 888.134C66.8749 895 84.5167 895 119.8 895H320.2C355.483 895 373.125 895 386.602 888.134C398.456 882.094 408.094 872.456 414.134 860.602C421 847.125 421 829.483 421 794.2V121.8C421 86.5167 421 68.8748 414.134 55.3984C408.094 43.5442 398.456 33.9062 386.602 27.8662C373.125 20.9996 355.483 21 320.2 21H119.8Z" fill="black"></path>
</mask>

<filter id="filter0_ii_469_393" x="-0.5" y="349" width="7" height="67.5" filterUnits="userSpaceOnUse" color-interpolation-filters="sRGB">
<feFlood flood-opacity="0" result="BackgroundImageFix"></feFlood>
<feBlend mode="normal" in="SourceGraphic" in2="BackgroundImageFix" result="shape"></feBlend>
<feColorMatrix in="SourceAlpha" type="matrix" values="0 0 0 0 0 0 0 0 0 0 0 0 0 0 0 0 0 0 127 0" result="hardAlpha"></feColorMatrix>
<feOffset dx="1"></feOffset>
<feGaussianBlur stdDeviation="0.25"></feGaussianBlur>
<feComposite in2="hardAlpha" operator="arithmetic" k2="-1" k3="1"></feComposite>
<feColorMatrix type="matrix" values="0 0 0 0 0.635294 0 0 0 0 0.647059 0 0 0 0 0.698039 0 0 0 1 0"></feColorMatrix>
<feBlend mode="normal" in2="shape" result="effect1_innerShadow_469_393"></feBlend>
<feColorMatrix in="SourceAlpha" type="matrix" values="0 0 0 0 0 0 0 0 0 0 0 0 0 0 0 0 0 0 127 0" result="hardAlpha"></feColorMatrix>
<feOffset dx="-3"></feOffset>
<feGaussianBlur stdDeviation="0.75"></feGaussianBlur>
<feComposite in2="hardAlpha" operator="arithmetic" k2="-1" k3="1"></feComposite>
<feColorMatrix type="matrix" values="0 0 0 0 0.121569 0 0 0 0 0.129412 0 0 0 0 0.164706 0 0 0 1 0"></feColorMatrix>
<feBlend mode="normal" in2="effect1_innerShadow_469_393" result="effect2_innerShadow_469_393"></feBlend>
</filter>
<filter id="filter1_ii_469_393" x="-0.5" y="264" width="7" height="67.5" filterUnits="userSpaceOnUse" color-interpolation-filters="sRGB">
<feFlood flood-opacity="0" result="BackgroundImageFix"></feFlood>
<feBlend mode="normal" in="SourceGraphic" in2="BackgroundImageFix" result="shape"></feBlend>
<feColorMatrix in="SourceAlpha" type="matrix" values="0 0 0 0 0 0 0 0 0 0 0 0 0 0 0 0 0 0 127 0" result="hardAlpha"></feColorMatrix>
<feOffset dx="0.5"></feOffset>
<feGaussianBlur stdDeviation="0.25"></feGaussianBlur>
<feComposite in2="hardAlpha" operator="arithmetic" k2="-1" k3="1"></feComposite>
<feColorMatrix type="matrix" values="0 0 0 0 0.635294 0 0 0 0 0.647059 0 0 0 0 0.698039 0 0 0 1 0"></feColorMatrix>
<feBlend mode="normal" in2="shape" result="effect1_innerShadow_469_393"></feBlend>
<feColorMatrix in="SourceAlpha" type="matrix" values="0 0 0 0 0 0 0 0 0 0 0 0 0 0 0 0 0 0 127 0" result="hardAlpha"></feColorMatrix>
<feOffset dx="-3"></feOffset>
<feGaussianBlur stdDeviation="0.75"></feGaussianBlur>
<feComposite in2="hardAlpha" operator="arithmetic" k2="-1" k3="1"></feComposite>
<feColorMatrix type="matrix" values="0 0 0 0 0.176471 0 0 0 0 0.2 0 0 0 0 0.25098 0 0 0 1 0"></feColorMatrix>
<feBlend mode="normal" in2="effect1_innerShadow_469_393" result="effect2_innerShadow_469_393"></feBlend>
</filter>
<filter id="filter2_ii_469_393" x="-0.5" y="191" width="7" height="42" filterUnits="userSpaceOnUse" color-interpolation-filters="sRGB">
<feFlood flood-opacity="0" result="BackgroundImageFix"></feFlood>
<feBlend mode="normal" in="SourceGraphic" in2="BackgroundImageFix" result="shape"></feBlend>
<feColorMatrix in="SourceAlpha" type="matrix" values="0 0 0 0 0 0 0 0 0 0 0 0 0 0 0 0 0 0 127 0" result="hardAlpha"></feColorMatrix>
<feOffset dx="1"></feOffset>
<feGaussianBlur stdDeviation="0.25"></feGaussianBlur>
<feComposite in2="hardAlpha" operator="arithmetic" k2="-1" k3="1"></feComposite>
<feColorMatrix type="matrix" values="0 0 0 0 0.635294 0 0 0 0 0.647059 0 0 0 0 0.698039 0 0 0 1 0"></feColorMatrix>
<feBlend mode="normal" in2="shape" result="effect1_innerShadow_469_393"></feBlend>
<feColorMatrix in="SourceAlpha" type="matrix" values="0 0 0 0 0 0 0 0 0 0 0 0 0 0 0 0 0 0 127 0" result="hardAlpha"></feColorMatrix>
<feOffset dx="-3"></feOffset>
<feGaussianBlur stdDeviation="0.75"></feGaussianBlur>
<feComposite in2="hardAlpha" operator="arithmetic" k2="-1" k3="1"></feComposite>
<feColorMatrix type="matrix" values="0 0 0 0 0.121569 0 0 0 0 0.129412 0 0 0 0 0.164706 0 0 0 1 0"></feColorMatrix>
<feBlend mode="normal" in2="effect1_innerShadow_469_393" result="effect2_innerShadow_469_393"></feBlend>
</filter>
<filter id="filter3_ii_469_393" x="434" y="287" width="7" height="107" filterUnits="userSpaceOnUse" color-interpolation-filters="sRGB">
<feFlood flood-opacity="0" result="BackgroundImageFix"></feFlood>
<feBlend mode="normal" in="SourceGraphic" in2="BackgroundImageFix" result="shape"></feBlend>
<feColorMatrix in="SourceAlpha" type="matrix" values="0 0 0 0 0 0 0 0 0 0 0 0 0 0 0 0 0 0 127 0" result="hardAlpha"></feColorMatrix>
<feOffset dx="-1"></feOffset>
<feGaussianBlur stdDeviation="0.25"></feGaussianBlur>
<feComposite in2="hardAlpha" operator="arithmetic" k2="-1" k3="1"></feComposite>
<feColorMatrix type="matrix" values="0 0 0 0 0.635294 0 0 0 0 0.647059 0 0 0 0 0.698039 0 0 0 1 0"></feColorMatrix>
<feBlend mode="normal" in2="shape" result="effect1_innerShadow_469_393"></feBlend>
<feColorMatrix in="SourceAlpha" type="matrix" values="0 0 0 0 0 0 0 0 0 0 0 0 0 0 0 0 0 0 127 0" result="hardAlpha"></feColorMatrix>
<feOffset dx="3"></feOffset>
<feGaussianBlur stdDeviation="0.75"></feGaussianBlur>
<feComposite in2="hardAlpha" operator="arithmetic" k2="-1" k3="1"></feComposite>
<feColorMatrix type="matrix" values="0 0 0 0 0.121569 0 0 0 0 0.129412 0 0 0 0 0.164706 0 0 0 1 0"></feColorMatrix>
<feBlend mode="normal" in2="effect1_innerShadow_469_393" result="effect2_innerShadow_469_393"></feBlend>
</filter>
<filter id="filter4_dddddd_469_393" x="2" y="4" width="436" height="908" filterUnits="userSpaceOnUse" color-interpolation-filters="sRGB">
<feFlood flood-opacity="0" result="BackgroundImageFix"></feFlood>
<feColorMatrix in="SourceAlpha" type="matrix" values="0 0 0 0 0 0 0 0 0 0 0 0 0 0 0 0 0 0 127 0" result="hardAlpha"></feColorMatrix>
<feOffset></feOffset>
<feGaussianBlur stdDeviation="2"></feGaussianBlur>
<feComposite in2="hardAlpha" operator="out"></feComposite>
<feColorMatrix type="matrix" values="0 0 0 0 1 0 0 0 0 1 0 0 0 0 1 0 0 0 1 0"></feColorMatrix>
<feBlend mode="color-dodge" in2="BackgroundImageFix" result="effect1_dropShadow_469_393"></feBlend>
<feColorMatrix in="SourceAlpha" type="matrix" values="0 0 0 0 0 0 0 0 0 0 0 0 0 0 0 0 0 0 127 0" result="hardAlpha"></feColorMatrix>
<feOffset></feOffset>
<feGaussianBlur stdDeviation="2.5"></feGaussianBlur>
<feColorMatrix type="matrix" values="0 0 0 0 1 0 0 0 0 1 0 0 0 0 1 0 0 0 1 0"></feColorMatrix>
<feBlend mode="plus-lighter" in2="effect1_dropShadow_469_393" result="effect2_dropShadow_469_393"></feBlend>
<feColorMatrix in="SourceAlpha" type="matrix" values="0 0 0 0 0 0 0 0 0 0 0 0 0 0 0 0 0 0 127 0" result="hardAlpha"></feColorMatrix>
<feOffset></feOffset>
<feGaussianBlur stdDeviation="2"></feGaussianBlur>
<feComposite in2="hardAlpha" operator="out"></feComposite>
<feColorMatrix type="matrix" values="0 0 0 0 0.88 0 0 0 0 0.944186 0 0 0 0 1 0 0 0 1 0"></feColorMatrix>
<feBlend mode="plus-lighter" in2="effect2_dropShadow_469_393" result="effect3_dropShadow_469_393"></feBlend>
<feColorMatrix in="SourceAlpha" type="matrix" values="0 0 0 0 0 0 0 0 0 0 0 0 0 0 0 0 0 0 127 0" result="hardAlpha"></feColorMatrix>
<feOffset></feOffset>
<feGaussianBlur stdDeviation="3.5"></feGaussianBlur>
<feComposite in2="hardAlpha" operator="out"></feComposite>
<feColorMatrix type="matrix" values="0 0 0 0 0.384314 0 0 0 0 0.403922 0 0 0 0 0.498039 0 0 0 1 0"></feColorMatrix>
<feBlend mode="normal" in2="effect3_dropShadow_469_393" result="effect4_dropShadow_469_393"></feBlend>
<feColorMatrix in="SourceAlpha" type="matrix" values="0 0 0 0 0 0 0 0 0 0 0 0 0 0 0 0 0 0 127 0" result="hardAlpha"></feColorMatrix>
<feOffset></feOffset>
<feGaussianBlur stdDeviation="4"></feGaussianBlur>
<feComposite in2="hardAlpha" operator="out"></feComposite>
<feColorMatrix type="matrix" values="0 0 0 0 0.384314 0 0 0 0 0.403922 0 0 0 0 0.498039 0 0 0 1 0"></feColorMatrix>
<feBlend mode="normal" in2="effect4_dropShadow_469_393" result="effect5_dropShadow_469_393"></feBlend>
<feColorMatrix in="SourceAlpha" type="matrix" values="0 0 0 0 0 0 0 0 0 0 0 0 0 0 0 0 0 0 127 0" result="hardAlpha"></feColorMatrix>
<feOffset></feOffset>
<feGaussianBlur stdDeviation="0.5"></feGaussianBlur>
<feComposite in2="hardAlpha" operator="out"></feComposite>
<feColorMatrix type="matrix" values="0 0 0 0 0.129412 0 0 0 0 0.145098 0 0 0 0 0.164706 0 0 0 1 0"></feColorMatrix>
<feBlend mode="plus-darker" in2="effect5_dropShadow_469_393" result="effect6_dropShadow_469_393"></feBlend>
<feBlend mode="normal" in="SourceGraphic" in2="effect6_dropShadow_469_393" result="shape"></feBlend>
</filter>
<filter id="filter5_di_469_393" x="129.076" y="12" width="180.849" height="6" filterUnits="userSpaceOnUse" color-interpolation-filters="sRGB">
<feFlood flood-opacity="0" result="BackgroundImageFix"></feFlood>
<feColorMatrix in="SourceAlpha" type="matrix" values="0 0 0 0 0 0 0 0 0 0 0 0 0 0 0 0 0 0 127 0" result="hardAlpha"></feColorMatrix>
<feOffset dy="1"></feOffset>
<feGaussianBlur stdDeviation="0.5"></feGaussianBlur>
<feComposite in2="hardAlpha" operator="out"></feComposite>
<feColorMatrix type="matrix" values="0 0 0 0 1 0 0 0 0 1 0 0 0 0 1 0 0 0 0.25 0"></feColorMatrix>
<feBlend mode="normal" in2="BackgroundImageFix" result="effect1_dropShadow_469_393"></feBlend>
<feBlend mode="normal" in="SourceGraphic" in2="effect1_dropShadow_469_393" result="shape"></feBlend>
<feColorMatrix in="SourceAlpha" type="matrix" values="0 0 0 0 0 0 0 0 0 0 0 0 0 0 0 0 0 0 127 0" result="hardAlpha"></feColorMatrix>
<feOffset dy="-0.25"></feOffset>
<feComposite in2="hardAlpha" operator="arithmetic" k2="-1" k3="1"></feComposite>
<feColorMatrix type="matrix" values="0 0 0 0 1 0 0 0 0 1 0 0 0 0 1 0 0 0 0.2 0"></feColorMatrix>
<feBlend mode="normal" in2="shape" result="effect2_innerShadow_469_393"></feBlend>
</filter>
<filter id="filter6_if_469_393" x="-3" y="345" width="13" height="75.5" filterUnits="userSpaceOnUse" color-interpolation-filters="sRGB">
<feFlood flood-opacity="0" result="BackgroundImageFix"></feFlood>
<feBlend mode="normal" in="SourceGraphic" in2="BackgroundImageFix" result="shape"></feBlend>
<feColorMatrix in="SourceAlpha" type="matrix" values="0 0 0 0 0 0 0 0 0 0 0 0 0 0 0 0 0 0 127 0" result="hardAlpha"></feColorMatrix>
<feOffset></feOffset>
<feGaussianBlur stdDeviation="1"></feGaussianBlur>
<feComposite in2="hardAlpha" operator="arithmetic" k2="-1" k3="1"></feComposite>
<feColorMatrix type="matrix" values="0 0 0 0 0.121569 0 0 0 0 0.129412 0 0 0 0 0.164706 0 0 0 1 0"></feColorMatrix>
<feBlend mode="normal" in2="shape" result="effect1_innerShadow_469_393"></feBlend>
<feGaussianBlur stdDeviation="2" result="effect2_foregroundBlur_469_393"></feGaussianBlur>
</filter>
<filter id="filter7_if_469_393" x="-3" y="260" width="13" height="75.5" filterUnits="userSpaceOnUse" color-interpolation-filters="sRGB">
<feFlood flood-opacity="0" result="BackgroundImageFix"></feFlood>
<feBlend mode="normal" in="SourceGraphic" in2="BackgroundImageFix" result="shape"></feBlend>
<feColorMatrix in="SourceAlpha" type="matrix" values="0 0 0 0 0 0 0 0 0 0 0 0 0 0 0 0 0 0 127 0" result="hardAlpha"></feColorMatrix>
<feOffset></feOffset>
<feGaussianBlur stdDeviation="1"></feGaussianBlur>
<feComposite in2="hardAlpha" operator="arithmetic" k2="-1" k3="1"></feComposite>
<feColorMatrix type="matrix" values="0 0 0 0 0.121569 0 0 0 0 0.129412 0 0 0 0 0.164706 0 0 0 1 0"></feColorMatrix>
<feBlend mode="normal" in2="shape" result="effect1_innerShadow_469_393"></feBlend>
<feGaussianBlur stdDeviation="2" result="effect2_foregroundBlur_469_393"></feGaussianBlur>
</filter>
<filter id="filter8_if_469_393" x="-3" y="187" width="13" height="50" filterUnits="userSpaceOnUse" color-interpolation-filters="sRGB">
<feFlood flood-opacity="0" result="BackgroundImageFix"></feFlood>
<feBlend mode="normal" in="SourceGraphic" in2="BackgroundImageFix" result="shape"></feBlend>
<feColorMatrix in="SourceAlpha" type="matrix" values="0 0 0 0 0 0 0 0 0 0 0 0 0 0 0 0 0 0 127 0" result="hardAlpha"></feColorMatrix>
<feOffset></feOffset>
<feGaussianBlur stdDeviation="1"></feGaussianBlur>
<feComposite in2="hardAlpha" operator="arithmetic" k2="-1" k3="1"></feComposite>
<feColorMatrix type="matrix" values="0 0 0 0 0.121569 0 0 0 0 0.129412 0 0 0 0 0.164706 0 0 0 1 0"></feColorMatrix>
<feBlend mode="normal" in2="shape" result="effect1_innerShadow_469_393"></feBlend>
<feGaussianBlur stdDeviation="2" result="effect2_foregroundBlur_469_393"></feGaussianBlur>
</filter>
<filter id="filter9_if_469_393" x="429.5" y="283" width="13" height="115" filterUnits="userSpaceOnUse" color-interpolation-filters="sRGB">
<feFlood flood-opacity="0" result="BackgroundImageFix"></feFlood>
<feBlend mode="normal" in="SourceGraphic" in2="BackgroundImageFix" result="shape"></feBlend>
<feColorMatrix in="SourceAlpha" type="matrix" values="0 0 0 0 0 0 0 0 0 0 0 0 0 0 0 0 0 0 127 0" result="hardAlpha"></feColorMatrix>
<feOffset></feOffset>
<feGaussianBlur stdDeviation="1"></feGaussianBlur>
<feComposite in2="hardAlpha" operator="arithmetic" k2="-1" k3="1"></feComposite>
<feColorMatrix type="matrix" values="0 0 0 0 0.121569 0 0 0 0 0.129412 0 0 0 0 0.164706 0 0 0 1 0"></feColorMatrix>
<feBlend mode="normal" in2="shape" result="effect1_innerShadow_469_393"></feBlend>
<feGaussianBlur stdDeviation="2" result="effect2_foregroundBlur_469_393"></feGaussianBlur>
</filter>
<linearGradient id="paint0_linear_469_393" x1="1.012" y1="349" x2="1.012" y2="416.176" gradientUnits="userSpaceOnUse">
<stop stop-color="#313546"></stop>
<stop offset="0.0236902" stop-color="#D1D5F7"></stop>
<stop offset="0.0964981" stop-color="#737687"></stop>
<stop offset="0.493916" stop-color="#3D3F4D"></stop>
<stop offset="0.921182" stop-color="#747889"></stop>
<stop offset="0.963234" stop-color="#737687"></stop>
<stop offset="0.986829" stop-color="#D1D5F7"></stop>
<stop offset="1" stop-color="#313546"></stop>
</linearGradient>
<linearGradient id="paint1_linear_469_393" x1="1.012" y1="264" x2="1.012" y2="331.176" gradientUnits="userSpaceOnUse">
<stop stop-color="#313546"></stop>
<stop offset="0.00895078" stop-color="#9194AC"></stop>
<stop offset="0.0236902" stop-color="#747889"></stop>
<stop offset="0.0722192" stop-color="#3D3F4D"></stop>
<stop offset="0.493916" stop-color="#424659"></stop>
<stop offset="0.921182" stop-color="#747889"></stop>
<stop offset="0.963234" stop-color="#313546"></stop>
<stop offset="0.986829" stop-color="#9194AC"></stop>
<stop offset="1" stop-color="#313546"></stop>
</linearGradient>
<linearGradient id="paint2_linear_469_393" x1="1.012" y1="191" x2="1.012" y2="232.798" gradientUnits="userSpaceOnUse">
<stop stop-color="#313546"></stop>
<stop offset="0.0236902" stop-color="#D1D5F7"></stop>
<stop offset="0.0964981" stop-color="#737687"></stop>
<stop offset="0.493916" stop-color="#3D3F4D"></stop>
<stop offset="0.921182" stop-color="#747889"></stop>
<stop offset="0.963234" stop-color="#737687"></stop>
<stop offset="0.986829" stop-color="#D1D5F7"></stop>
<stop offset="1" stop-color="#313546"></stop>
</linearGradient>
<linearGradient id="paint3_linear_469_393" x1="434.512" y1="287" x2="434.512" y2="393.486" gradientUnits="userSpaceOnUse">
<stop stop-color="#313546"></stop>
<stop offset="0.0236902" stop-color="#D1D5F7"></stop>
<stop offset="0.0964981" stop-color="#737687"></stop>
<stop offset="0.493916" stop-color="#3D3F4D"></stop>
<stop offset="0.921182" stop-color="#747889"></stop>
<stop offset="0.963234" stop-color="#737687"></stop>
<stop offset="0.986829" stop-color="#D1D5F7"></stop>
<stop offset="1" stop-color="#313546"></stop>
</linearGradient>
<linearGradient id="paint4_linear_469_393" x1="1.012" y1="349" x2="1.012" y2="416.176" gradientUnits="userSpaceOnUse">
<stop stop-color="#313546"></stop>
<stop offset="0.0236902" stop-color="#D1D5F7"></stop>
<stop offset="0.0964981" stop-color="#737687"></stop>
<stop offset="0.493916" stop-color="#3D3F4D"></stop>
<stop offset="0.921182" stop-color="#747889"></stop>
<stop offset="0.963234" stop-color="#737687"></stop>
<stop offset="0.986829" stop-color="#D1D5F7"></stop>
<stop offset="1" stop-color="#313546"></stop>
</linearGradient>
<linearGradient id="paint5_linear_469_393" x1="1.012" y1="264" x2="1.012" y2="331.176" gradientUnits="userSpaceOnUse">
<stop stop-color="#313546"></stop>
<stop offset="0.0236902" stop-color="#D1D5F7"></stop>
<stop offset="0.0964981" stop-color="#737687"></stop>
<stop offset="0.493916" stop-color="#3D3F4D"></stop>
<stop offset="0.921182" stop-color="#747889"></stop>
<stop offset="0.963234" stop-color="#737687"></stop>
<stop offset="0.986829" stop-color="#D1D5F7"></stop>
<stop offset="1" stop-color="#313546"></stop>
</linearGradient>
<linearGradient id="paint6_linear_469_393" x1="1.012" y1="191" x2="1.012" y2="232.798" gradientUnits="userSpaceOnUse">
<stop stop-color="#313546"></stop>
<stop offset="0.0236902" stop-color="#D1D5F7"></stop>
<stop offset="0.0964981" stop-color="#737687"></stop>
<stop offset="0.493916" stop-color="#3D3F4D"></stop>
<stop offset="0.921182" stop-color="#747889"></stop>
<stop offset="0.963234" stop-color="#737687"></stop>
<stop offset="0.986829" stop-color="#D1D5F7"></stop>
<stop offset="1" stop-color="#313546"></stop>
</linearGradient>
<linearGradient id="paint7_linear_469_393" x1="433.512" y1="287" x2="433.512" y2="393.486" gradientUnits="userSpaceOnUse">
<stop stop-color="#313546"></stop>
<stop offset="0.0236902" stop-color="#D1D5F7"></stop>
<stop offset="0.0964981" stop-color="#737687"></stop>
<stop offset="0.493916" stop-color="#3D3F4D"></stop>
<stop offset="0.921182" stop-color="#747889"></stop>
<stop offset="0.963234" stop-color="#737687"></stop>
<stop offset="0.986829" stop-color="#D1D5F7"></stop>
<stop offset="1" stop-color="#313546"></stop>
</linearGradient>
<linearGradient id="paint8_linear_469_393" x1="260.97" y1="54.2056" x2="264.539" y2="54.2679" gradientUnits="userSpaceOnUse">
<stop stop-color="#5B6A78"></stop>
<stop offset="1" stop-color="#6F7376" stop-opacity="0.01"></stop>
</linearGradient>
<linearGradient id="paint9_linear_469_393" x1="270.027" y1="51.0292" x2="266.929" y2="50.9751" gradientUnits="userSpaceOnUse">
<stop stop-color="#797E8E" stop-opacity="0.834579"></stop>
<stop offset="1" stop-color="#6C7782" stop-opacity="0.01"></stop>
</linearGradient>
</defs>
</svg>