<svg width="116" height="116" viewBox="0 0 116 116" fill="none" xmlns="http://www.w3.org/2000/svg">
<g clip-path="url(#clip0_410_6206)">
<path d="M0 38.4C0 24.9587 0 18.2381 2.61584 13.1042C4.9168 8.58834 8.58834 4.9168 13.1042 2.61584C18.2381 0 24.9587 0 38.4 0H77.6C91.0413 0 97.7619 0 102.896 2.61584C107.412 4.9168 111.083 8.58834 113.384 13.1042C116 18.2381 116 24.9587 116 38.4V77.6C116 91.0413 116 97.7619 113.384 102.896C111.083 107.412 107.412 111.083 102.896 113.384C97.7619 116 91.0413 116 77.6 116H38.4C24.9587 116 18.2381 116 13.1042 113.384C8.58834 111.083 4.9168 107.412 2.61584 102.896C0 97.7619 0 91.0413 0 77.6V38.4Z" fill="#8C76FB"></path>
<path fill-rule="evenodd" clip-rule="evenodd" d="M89.7479 39.5C86.7472 34.2804 63.9011 21 57.975 21C52.049 21 29.1408 34.3884 26.2023 39.5C23.2637 44.6116 23.2681 71.3961 26.2023 76.5C29.1364 81.604 52.049 95 57.9751 95C63.9011 95 86.7428 81.7273 89.7479 76.5C92.7529 71.2728 92.7485 44.7196 89.7479 39.5ZM33.5876 45.5816L35.1225 42.9117L57.9751 53.1131L80.8673 42.8941L82.3975 45.5559L62.1715 60.4434L59.512 85.4418H56.4382L53.7786 60.4434L33.5876 45.5816Z" fill="white"></path>
</g>
<defs>
<clipPath id="clip0_410_6206">
<rect width="116" height="116" fill="white"></rect>
</clipPath>
</defs>
</svg>