<svg width="116" height="116" viewBox="0 0 116 116" fill="none" xmlns="http://www.w3.org/2000/svg">
<g clip-path="url(#clip0_410_6204)">
<path d="M0 38.4C0 24.9587 0 18.2381 2.61584 13.1042C4.9168 8.58834 8.58834 4.9168 13.1042 2.61584C18.2381 0 24.9587 0 38.4 0H77.6C91.0413 0 97.7619 0 102.896 2.61584C107.412 4.9168 111.083 8.58834 113.384 13.1042C116 18.2381 116 24.9587 116 38.4V77.6C116 91.0413 116 97.7619 113.384 102.896C111.083 107.412 107.412 111.083 102.896 113.384C97.7619 116 91.0413 116 77.6 116H38.4C24.9587 116 18.2381 116 13.1042 113.384C8.58834 111.083 4.9168 107.412 2.61584 102.896C0 97.7619 0 91.0413 0 77.6V38.4Z" fill="#101D49"></path>
<path fill-rule="evenodd" clip-rule="evenodd" d="M74.4193 29.3241C75.2185 26.4473 72.4635 24.7462 69.9474 26.5626L34.824 51.918C32.0953 53.8879 32.5245 57.7399 35.4687 57.7399H62.7435L48.0558 62.9914L41.5808 86.301C40.7816 89.1778 43.5363 90.8788 46.0527 89.0623L81.1761 63.7071C83.9048 61.7372 83.4753 57.8124 80.5314 57.8124H66.5056L74.4193 29.3241Z" fill="#121F49"></path>
<path fill-rule="evenodd" clip-rule="evenodd" d="M74.4193 29.3241C75.2185 26.4473 72.4635 24.7462 69.9474 26.5626L34.824 51.918C32.0953 53.8879 32.5245 57.7399 35.4687 57.7399H62.7435L48.0558 62.9914L41.5808 86.301C40.7816 89.1778 43.5363 90.8788 46.0527 89.0623L81.1761 63.7071C83.9048 61.7372 83.4753 57.8124 80.5314 57.8124H66.5056L74.4193 29.3241Z" fill="white"></path>
</g>
<defs>
<clipPath id="clip0_410_6204">
<rect width="116" height="116" fill="white"></rect>
</clipPath>
</defs>
</svg>